<svg viewBox="0 0 200 200" xmlns="http://www.w3.org/2000/svg">
  <g transform="translate(110, -75) rotate(45)">
<!--Green tag (top left)-->
    <g transform="translate(49, 101) rotate(0)">
      <path d="M0 0 L40 0 L50 10 L50 30 L40 40 L0 40 Z" fill="none" stroke="#22c55e" stroke-width="2.5" stroke-linecap="round" stroke-linejoin="round"/>
      <line x1="8" y1="10" x2="8" y2="32" stroke="#22c55e" stroke-width="2" stroke-linecap="round"/>
      <line x1="16" y1="10" x2="16" y2="32" stroke="#22c55e" stroke-width="2" stroke-linecap="round"/>
      <line x1="24" y1="10" x2="24" y2="32" stroke="#22c55e" stroke-width="2" stroke-linecap="round"/>
      <circle cx="42" cy="20" r="2.5" fill="#22c55e"/>
    </g>
<!--Blue tag (top right)-->
    <g transform="translate(131, 59) rotate(90)">
      <path d="M0 0 L40 0 L50 10 L50 30 L40 40 L0 40 Z" fill="none" stroke="#3b82f6" stroke-width="2.5" stroke-linecap="round" stroke-linejoin="round"/>
      <line x1="8" y1="10" x2="8" y2="32" stroke="#3b82f6" stroke-width="2" stroke-linecap="round"/>
      <line x1="16" y1="10" x2="16" y2="32" stroke="#3b82f6" stroke-width="2" stroke-linecap="round"/>
      <line x1="24" y1="10" x2="24" y2="32" stroke="#3b82f6" stroke-width="2" stroke-linecap="round"/>
      <circle cx="42" cy="20" r="2.5" fill="#3b82f6"/>
    </g>
<!--Black tag (bottom left)-->
    <g transform="translate(173, 141) rotate(180)">
      <path d="M0 0 L40 0 L50 10 L50 30 L40 40 L0 40 Z" fill="none" stroke="#374151" stroke-width="2.5" stroke-linecap="round" stroke-linejoin="round"/>
      <line x1="8" y1="10" x2="8" y2="32" stroke="#374151" stroke-width="2" stroke-linecap="round"/>
      <line x1="16" y1="10" x2="16" y2="32" stroke="#374151" stroke-width="2" stroke-linecap="round"/>
      <line x1="24" y1="10" x2="24" y2="32" stroke="#374151" stroke-width="2" stroke-linecap="round"/>
      <circle cx="42" cy="20" r="2.5" fill="#374151"/>
    </g>
<!--Red tag (bottom right)-->
    <g transform="translate(91, 183) rotate(270)">
      <path d="M0 0 L40 0 L50 10 L50 30 L40 40 L0 40 Z" fill="none" stroke="#ef4444" stroke-width="2.5" stroke-linecap="round" stroke-linejoin="round"/>
      <line x1="8" y1="10" x2="8" y2="32" stroke="#ef4444" stroke-width="2" stroke-linecap="round"/>
      <line x1="16" y1="10" x2="16" y2="32" stroke="#ef4444" stroke-width="2" stroke-linecap="round"/>
      <line x1="24" y1="10" x2="24" y2="32" stroke="#ef4444" stroke-width="2" stroke-linecap="round"/>
      <circle cx="42" cy="20" r="2.5" fill="#ef4444"/>
    </g>
  </g>
</svg>
